<svg xmlns="http://www.w3.org/2000/svg" viewBox="0 0 24 24" width="24" height="24" fill="#fff"><path d="M17.472 14.382c-.297-.149-1.758-.867-2.03-.967-.273-.099-.472-.148-.672.149-.198.297-.768.967-.94 1.166-.173.198-.347.223-.644.074-.297-.149-1.255-.462-2.39-1.475-.883-.788-1.48-1.761-1.653-2.059-.173-.297-.018-.458.13-.606.134-.133.298-.347.447-.52.151-.174.2-.298.3-.497.099-.198.05-.372-.025-.52-.075-.149-.672-1.611-.922-2.204-.242-.579-.487-.5-.672-.51l-.573-.01c-.198 0-.52.074-.792.372s-1.04 1.016-1.04 2.479 1.065 2.876 1.213 3.074c.149.198 2.095 3.2 5.076 4.487  .709.306 1.26.489 1.693.626.712.226 1.36.194 1.872.118.571-.085 1.758-.719 2.006-1.413.248-.695.248-1.29.173-1.413-.074-.124-.273-.198-.57-.347z"/></svg>
